<?xml version="1.0" encoding="utf-8"?>
<!-- Generator: Adobe Illustrator 16.0.0, SVG Export Plug-In . SVG Version: 6.00 Build 0)  -->
<!DOCTYPE svg PUBLIC "-//W3C//DTD SVG 1.1//EN" "http://www.w3.org/Graphics/SVG/1.1/DTD/svg11.dtd">
<svg version="1.1" id="Layer_1" xmlns="http://www.w3.org/2000/svg" xmlns:xlink="http://www.w3.org/1999/xlink" x="0px" y="0px"
	 width="48px" height="48px" viewBox="0 0 48 48" enable-background="new 0 0 48 48" xml:space="preserve">
<g>
	<path style="fill:#E21E63" d="M47.1,32.57V12.612c0-4.337-3.583-7.863-7.921-7.863H8.808c-4.337,0-7.907,3.526-7.907,7.863V32.57
		c0,2.651,1.34,5.003,3.356,6.429l-0.238,0.003c-0.003,0-0.006,0-0.01,0c-1.688,0-3.063,1.363-3.065,3.053
		c-0.007,1.694,1.362,3.067,3.056,3.073l39.869,0.124c0.005,0,0.008,0,0.011,0c1.689,0,3.062-1.366,3.067-3.055
		c0.005-1.694-1.364-3.071-3.058-3.077l-0.333,0C45.673,37.708,47.1,35.3,47.1,32.57z M42.985,32.57
		c0,2.126-1.679,3.821-3.807,3.821H8.808c-2.127,0-3.951-1.695-3.951-3.821V12.612c0-2.126,1.824-3.829,3.951-3.829h30.371
		c2.128,0,3.807,1.703,3.807,3.829V32.57z"/>
	<path style="fill:#E21E63" d="M18.086,26.429l-3.909-3.908l4.019-4.019c0.593-0.592,0.593-1.551,0-2.142c-0.592-0.592-1.55-0.592-2.143,0l-5.089,5.089
		c-0.284,0.284-0.443,0.669-0.443,1.071s0.159,0.787,0.443,1.071l4.979,4.979c0.295,0.295,0.684,0.444,1.071,0.444
		c0.387,0,0.774-0.148,1.071-0.444C18.677,27.979,18.677,27.02,18.086,26.429z"/>
	<path style="fill:#E21E63" d="M30.654,16.36c-0.592-0.592-1.551-0.592-2.143,0c-0.591,0.591-0.591,1.55,0,2.142l4.019,4.019l-3.907,3.908
		c-0.592,0.591-0.592,1.55,0,2.142c0.295,0.295,0.684,0.444,1.071,0.444c0.387,0,0.774-0.148,1.07-0.444l4.979-4.979
		c0.283-0.284,0.443-0.669,0.443-1.071s-0.16-0.787-0.443-1.071L30.654,16.36z"/>
	<path style="fill:#E21E63" d="M27.211,11.887c-0.777-0.305-1.658,0.078-1.963,0.859l-7.174,18.334c-0.306,0.779,0.079,1.658,0.858,1.963
		c0.181,0.071,0.367,0.104,0.552,0.104c0.604,0,1.177-0.365,1.41-0.963l7.174-18.334C28.374,13.07,27.99,12.192,27.211,11.887z"/>
</g>
</svg>
